<svg width="40" height="40" viewBox="0 0 40 40" fill="none" xmlns="http://www.w3.org/2000/svg">
<circle cx="20" cy="20" r="20" fill="#10847E"/>
<path fill-rule="evenodd" clip-rule="evenodd" d="M27.3887 12.7133C27.5891 12.9137 27.6426 13.2052 27.5493 13.4542L22.4636 27.985C22.3687 28.2559 22.1182 28.4415 21.8314 28.4532C21.5446 28.4649 21.2798 28.3003 21.1632 28.0381L18.3634 21.7386L12.064 18.9389C11.8017 18.8223 11.6372 18.5575 11.6489 18.2707C11.6606 17.9839 11.8462 17.7333 12.1171 17.6385L26.6479 12.5527C26.7028 12.5322 26.7597 12.5188 26.8173 12.5125C26.8595 12.5078 26.9019 12.5071 26.9438 12.5101C27.1059 12.5216 27.2648 12.5894 27.3887 12.7133ZM24.2298 14.8823L14.2461 18.3767L18.7387 20.3734L24.2298 14.8823ZM19.7287 21.3633L25.2197 15.8723L21.7254 25.856L19.7287 21.3633Z" fill="white"/>
</svg>
